HIERARCHY
ROOT Hips
{
	OFFSET -0.179506 -22.333345 2.821913
	CHANNELS 6 Xposition Yposition Zposition Zrotation Yrotation Xrotation 
	JOINT LeftUpLeg
	{
		OFFSET 6.951974 -9.140623 -0.681533
		CHANNELS 3 Zrotation Yrotation Xrotation
		JOINT LeftLeg
		{
			OFFSET 3.427654 -37.519855 -0.449580
			CHANNELS 3 Zrotation Yrotation Xrotation
			JOINT LeftFoot
			{
				OFFSET -1.359570 -39.796059 -4.369333
				CHANNELS 3 Zrotation Yrotation Xrotation
				JOINT LeftToe
				{
					OFFSET 2.635814 -5.579078 11.928840
					CHANNELS 3 Zrotation Yrotation Xrotation
					End Site
					{
						OFFSET 0.000000 0.000000 0.000000
					}
				}
			}
		}
	}
	JOINT RightUpLeg
	{
		OFFSET -6.767048 -9.052170 -0.431982
		CHANNELS 3 Zrotation Yrotation Xrotation
		JOINT RightLeg
		{
			OFFSET -3.829005 -38.256897 -0.885003
			CHANNELS 3 Zrotation Yrotation Xrotation
			JOINT RightFoot
			{
				OFFSET 1.577377 -39.841461 -4.231180
				CHANNELS 3 Zrotation Yrotation Xrotation
				JOINT RightToe
				{
					OFFSET -2.537174 -4.814398 12.334795
					CHANNELS 3 Zrotation Yrotation Xrotation
					End Site
					{
						OFFSET 0.000000 0.000000 0.000000
					}
				}
			}
		}
	}
	JOINT Spine
	{
		OFFSET -0.253288 10.896323 -2.669631
		CHANNELS 3 Zrotation Yrotation Xrotation
		JOINT Spine1
		{
			OFFSET 0.548704 13.518043 0.109247
			CHANNELS 3 Zrotation Yrotation Xrotation
			JOINT Spine2
			{
				OFFSET 0.145701 5.292222 2.542457
				CHANNELS 3 Zrotation Yrotation Xrotation
				JOINT Neck
				{
					OFFSET -0.277840 21.387037 -4.285703
					CHANNELS 3 Zrotation Yrotation Xrotation
					JOINT Head
					{
						OFFSET 0.515184 6.496960 5.134897
						CHANNELS 3 Zrotation Yrotation Xrotation
						End Site
						{
							OFFSET 0.000000 0.000000 0.000000
						}
					}
				}
				JOINT LeftShoulder
				{
					OFFSET 7.884473 12.174932 -3.408961
					CHANNELS 3 Zrotation Yrotation Xrotation
					JOINT LeftArm
					{
						OFFSET 9.097692 3.046888 -0.886815
						CHANNELS 3 Zrotation Yrotation Xrotation
						JOINT LeftForeArm
						{
							OFFSET 25.961220 -1.277207 -2.745643
							CHANNELS 3 Zrotation Yrotation Xrotation
							JOINT LeftHand
							{
								OFFSET 24.923361 0.898606 -0.117091
								CHANNELS 3 Zrotation Yrotation Xrotation
								End Site
								{
									OFFSET 0.000000 0.000000 0.000000
								}
							}
						}
					}
				}
				JOINT RightShoulder
				{
					OFFSET -8.175920 11.883285 -3.861528
					CHANNELS 3 Zrotation Yrotation Xrotation
					JOINT RightArm
					{
						OFFSET -9.601238 3.255117 -0.914307
						CHANNELS 3 Zrotation Yrotation Xrotation
						JOINT RightForeArm
						{
							OFFSET -25.374195 -1.332924 -2.140099
							CHANNELS 3 Zrotation Yrotation Xrotation
							JOINT RightHand
							{
								OFFSET -25.529810 0.777228 -0.555919
								CHANNELS 3 Zrotation Yrotation Xrotation
								End Site
								{
									OFFSET 0.000000 0.000000 0.000000
								}
							}
						}
					}
				}
			}
		}
	}
}
MOTION
Frames: 16
Frame Time: 0.033333
-52.851807 -35.250244 80.226646 -141.864495 2.120328 89.775893 11.872787 1.310232 -56.022451 -3.792869 16.895990 88.250811 2.561112 10.284500 -20.017049 nan nan nan -22.906807 -5.635108 -24.741870 5.952232 -1.252460 49.257205 1.933394 1.088612 -25.350818 nan nan nan 7.581337 5.129377 30.326790 3.850850 -4.451609 12.175747 2.710311 -2.172846 -4.600132 -12.529408 18.455123 -8.427092 -10.429448 12.616703 -22.798589 -28.539040 -4.290355 7.024609 -58.494768 10.798927 20.992236 -3.176617 -32.808506 30.185489 -9.501898 -24.243995 -11.707524 27.569568 8.194594 2.256105 44.479937 -0.881986 4.567310 -35.566455 60.146657 -38.299426 -19.989390 24.099863 -34.169725 
-53.697483 -34.609947 80.712433 -141.545144 1.933845 89.993045 12.404414 2.326770 -56.854668 -3.447343 17.404795 86.945333 2.017913 9.679141 -18.011752 nan nan nan -22.880459 -5.510221 -23.250889 5.578289 -0.699904 47.763944 2.061574 0.863727 -25.404348 nan nan nan 7.259926 5.747930 30.323824 3.642165 -4.337880 12.253590 2.695439 -2.109583 -4.806830 -12.273849 18.477244 -8.488361 -10.557755 12.061403 -22.897129 -28.127191 -3.932424 7.153920 -57.831761 11.996642 21.199757 -4.407930 -34.104014 31.931939 -9.178687 -24.688490 -11.884462 27.390584 8.071978 2.114854 44.516529 -0.719336 4.851755 -36.946960 61.139621 -39.157878 -20.689797 24.269732 -34.302240 
-54.625149 -33.946571 81.242561 -141.136103 1.911039 90.207769 12.984447 3.366946 -57.560841 -2.917521 17.931524 85.658577 1.246201 8.977449 -15.881753 nan nan nan -22.749724 -5.378259 -21.550655 5.155932 -0.325519 46.010566 2.183380 0.731580 -25.271216 nan nan nan 7.109312 6.267722 30.102399 3.463158 -4.278553 12.452194 2.641629 -2.039103 -4.996384 -12.047803 18.583094 -8.463858 -10.821739 11.470879 -23.045743 -27.757778 -3.416343 7.322823 -57.118089 13.129665 21.192443 -5.775591 -35.489295 33.481079 -9.034288 -25.147691 -11.880252 27.218713 7.855264 2.244019 44.516659 -0.498631 4.926333 -38.348482 62.257591 -39.934532 -21.084477 24.520869 -34.076615 
-55.632626 -33.277061 81.835114 -140.666177 1.872561 90.486934 13.503642 4.337250 -58.146271 -2.371221 18.592583 84.238931 0.718791 8.286409 -13.895964 nan nan nan -22.654182 -5.322935 -19.794858 4.697296 -0.027311 44.081920 2.490776 0.756283 -24.800564 nan nan nan 6.863694 6.842434 29.656268 3.371032 -4.279363 12.802937 2.602173 -1.986169 -5.323659 -11.543889 18.837353 -8.484294 -10.948983 10.938408 -22.776047 -27.352290 -2.757505 7.500976 -56.403330 14.199649 21.000009 -7.192593 -36.884495 34.915661 -9.447749 -25.859569 -11.673011 27.153986 7.500450 2.453815 44.432424 -0.335104 4.998547 -39.823655 63.487610 -40.974303 -20.998025 24.832354 -33.961012 
-56.670616 -32.642799 82.501060 -140.023726 1.746176 90.901492 13.821844 5.076059 -58.698319 -2.056494 19.298745 82.542273 0.342046 7.725298 -12.062893 nan nan nan -22.699186 -5.362091 -17.949828 4.271481 0.178016 41.883736 2.950153 0.904644 -24.100347 nan nan nan 6.447833 7.521434 29.125660 3.365870 -4.390510 12.982564 2.628629 -2.043686 -5.594342 -10.922661 19.005433 -8.525312 -10.853582 10.512755 -22.437417 -26.866847 -2.018205 7.747551 -55.601413 15.193832 20.878767 -9.001529 -38.412624 36.851940 -9.481060 -26.519891 -11.366146 27.242089 7.041029 2.582779 44.270736 -0.196223 5.141589 -41.275435 64.874241 -42.188090 -20.958163 25.189744 -33.971952 
-57.722309 -32.036575 83.250931 -139.049793 1.703846 91.190343 13.996132 5.539239 -59.111126 -2.137400 19.836813 80.681131 0.154980 7.396179 -10.073979 nan nan nan -22.673373 -5.498582 -15.571156 3.942750 0.405914 39.235117 3.327077 0.778101 -23.179552 nan nan nan 6.076551 8.032480 28.808776 3.460845 -4.586624 12.735647 2.703845 -2.050729 -5.492403 -10.368917 18.760735 -8.586786 -10.689030 10.235806 -22.138399 -26.369176 -1.393890 8.080993 -54.845305 16.004341 20.765350 -11.249011 -39.816890 39.098251 -8.446561 -26.676698 -11.837805 27.241769 6.512175 2.481394 44.168642 -0.266860 5.171305 -43.009594 66.615928 -43.514707 -21.118163 25.313098 -33.628872 
-58.793331 -31.450403 84.028938 -137.939101 1.814049 91.473843 14.264252 5.892426 -59.449289 -2.348625 20.410778 78.797588 0.044715 7.044513 -8.187879 nan nan nan -22.528916 -5.696883 -13.071812 3.648480 0.524853 36.413723 3.729570 0.578122 -21.823404 nan nan nan 5.810616 8.456480 28.446176 3.624195 -4.759417 12.218620 2.856363 -2.066465 -5.063463 -9.787298 18.525725 -8.731455 -10.554218 9.905384 -21.585361 -25.729473 -0.923059 8.133184 -54.517378 16.363198 20.322669 -13.333426 -40.284017 40.140109 -9.231871 -27.025927 -12.264602 27.049332 5.948057 2.196620 44.133305 -0.485292 5.081140 -44.691622 68.437151 -45.027396 -20.465899 25.519247 -32.537762 
-59.931282 -30.873295 84.816963 -136.834435 1.807824 91.915184 14.388794 6.080282 -59.724543 -2.530644 21.136729 76.786937 -0.149810 6.680790 -6.491995 nan nan nan -22.687727 -6.117407 -10.783459 3.376635 0.301873 33.646831 4.334240 0.819246 -19.915030 nan nan nan 5.375245 8.990963 27.634430 3.812748 -5.007114 11.972033 3.024058 -2.135512 -4.672089 -9.229524 18.301159 -8.671345 -10.310313 9.589488 -21.135009 -25.106790 -0.508194 8.196681 -54.330117 16.869461 20.095732 -15.006586 -41.017418 40.903315 -9.624961 -27.327503 -12.837639 26.867992 5.483870 2.000189 44.066979 -0.742146 5.027927 -45.948133 69.947275 -46.698299 -19.986726 25.835958 -31.700098 
-61.235512 -30.202909 85.652603 -135.893319 1.672811 92.206119 14.327605 6.293147 -59.498750 -2.764775 21.889557 74.738820 -0.217913 6.024499 -5.022646 nan nan nan -23.104891 -6.545681 -8.180588 3.179505 0.065435 30.630786 5.018351 1.315168 -17.534088 nan nan nan 4.655460 9.677342 26.523590 4.117931 -5.324751 12.521289 3.182891 -2.157293 -4.787444 -8.623649 18.171935 -8.156980 -10.151498 9.258849 -21.079516 -24.668590 0.006812 8.490629 -53.860804 17.368734 20.036312 -17.059941 -42.119740 42.324472 -9.503638 -27.239330 -12.551087 26.786381 5.039581 2.021605 44.043467 -1.003881 5.129020 -47.613384 71.105878 -48.497175 -20.181240 25.958135 -31.327118 
-62.659733 -29.466108 86.483612 -135.518871 1.723312 92.535231 14.496368 7.028326 -58.977068 -3.129371 22.707333 72.759646 -0.521363 5.226988 -3.839025 nan nan nan -23.352782 -6.509334 -5.797736 3.084479 -0.119994 27.538385 5.903180 1.987874 -14.732970 nan nan nan 3.916478 10.492290 24.893439 4.413960 -5.313646 13.698974 3.312490 -2.092604 -5.177590 -8.059289 18.172627 -7.155275 -10.114795 8.701994 -21.532531 -24.357666 0.428186 8.762654 -53.278848 18.149608 20.186303 -18.943243 -43.495959 43.939131 -9.395788 -27.530385 -12.975547 26.720799 4.663999 1.977006 43.951896 -1.575679 5.278202 -49.421958 72.384590 -49.888386 -19.955923 26.004963 -31.372412 
-64.089783 -28.957947 87.332657 -134.330751 1.921680 92.895811 14.290640 6.881003 -58.824385 -3.798819 22.845770 70.509761 -0.814720 4.788390 -2.423815 nan nan nan -23.570969 -6.871310 -3.238107 3.292482 -0.559855 24.466807 7.060081 2.383119 -11.394827 nan nan nan 3.939350 10.872832 23.861304 4.592611 -5.705282 13.543256 3.276207 -2.227462 -4.766132 -7.504506 17.782364 -6.771480 -9.938744 8.572401 -21.320348 -23.670173 0.787803 8.780526 -53.144101 18.842294 20.462511 -20.441151 -44.624280 45.600086 -9.054138 -28.665369 -15.553698 26.318176 4.219891 1.414727 44.012084 -2.255731 5.473086 -50.271052 73.744124 -50.565588 -18.974122 26.228707 -31.493795 
-65.850555 -29.282484 88.188225 -136.361889 0.825484 95.855129 13.409909 7.608652 -59.897992 -3.553641 25.037452 67.237620 -1.140810 4.692074 -1.105245 nan nan nan -25.859110 -5.984690 -6.286406 3.733264 -1.720128 23.266106 9.497361 3.732350 -6.958886 nan nan nan 2.823377 12.101360 20.171149 3.880417 -4.781824 14.864374 2.526757 -2.143530 -6.317155 -7.291935 18.119146 -4.431132 -9.690279 7.643495 -22.505794 -24.095677 1.508265 9.090692 -52.113260 19.988398 21.428788 -22.368339 -46.196143 46.707321 -8.829305 -27.779107 -14.951091 26.715226 3.557445 2.429161 43.169942 -2.604356 5.142434 -51.708826 75.496538 -52.456687 -19.151202 26.264941 -31.150810 
-66.958153 -27.992147 89.073624 -133.503567 2.329613 94.045016 14.180353 7.393137 -57.864672 -5.326600 23.269328 65.515394 -1.669619 3.432620 0.303962 nan nan nan -23.808318 -7.187472 -0.214740 3.288896 -1.882211 19.553449 8.829668 3.314730 -3.954305 nan nan nan 3.137230 11.855882 21.676282 4.929168 -5.507152 13.175467 3.292074 -2.234470 -4.565910 -6.384433 17.704432 -4.936900 -9.740921 7.664660 -21.382617 -22.445221 1.872473 9.151821 -53.172498 20.141087 21.033532 -23.894276 -46.880700 49.267161 -6.873874 -29.018577 -17.845002 25.944347 3.254201 1.434593 43.846940 -3.231263 5.634185 -52.846480 76.480904 -52.770298 -18.764225 26.742912 -31.374197 
-68.417397 -27.466368 89.932899 -133.324867 2.764385 94.521614 14.235762 7.806463 -57.173490 -5.852074 23.379391 63.324796 -1.890373 2.694587 1.343170 nan nan nan -23.713591 -7.166678 1.115301 3.164410 -2.820327 16.856937 9.992690 3.955371 0.799874 nan nan nan 2.895988 12.245938 20.603413 5.123831 -5.252454 13.037785 3.213699 -2.121794 -4.507025 -5.804488 17.588608 -3.847740 -9.611735 7.177788 -21.673981 -21.927452 2.370970 9.141740 -53.502223 20.700280 21.050872 -24.913426 -47.429584 50.355324 -7.367762 -29.298672 -18.016553 25.719446 2.740763 1.471730 43.673086 -3.809644 5.466314 -53.088802 77.753167 -52.672706 -17.079783 27.300387 -29.950914 
-69.907959 -26.983696 90.792336 -133.129732 3.268776 95.000029 14.261951 8.162762 -56.437777 -6.416001 23.425389 61.203370 -1.979633 2.393539 2.142702 nan nan nan -23.531204 -7.154026 2.266864 3.216057 -3.743690 14.583675 10.927318 3.920082 5.263822 nan nan nan 2.732475 12.535084 19.565728 5.314785 -4.984220 12.993245 3.124526 -1.977915 -4.626810 -5.128164 17.503496 -2.722638 -9.573867 6.634340 -21.967523 -21.587449 2.952051 9.400537 -53.873622 21.387580 20.598811 -26.233563 -48.189831 50.920365 -7.365521 -28.810191 -16.734700 25.482422 2.211048 1.579300 43.417316 -4.354782 5.048585 -53.203196 79.259548 -52.431786 -16.294415 26.945139 -28.497905 
-71.418304 -26.455412 91.614914 -132.710092 3.960669 95.184220 14.399320 8.388392 -55.421028 -7.095145 23.199462 59.328729 -2.138245 2.146592 2.665751 nan nan nan -23.017582 -7.000747 3.894531 3.363171 -4.234677 12.322586 11.351391 3.478420 8.959975 nan nan nan 2.836576 12.727815 18.699243 5.545551 -4.772504 13.107106 3.092613 -1.855788 -4.656485 -4.579425 17.513829 -1.864333 -9.507998 5.950133 -22.101457 -21.245738 3.419256 9.703728 -54.346709 21.899458 20.218359 -27.372121 -48.869255 51.496092 -6.494304 -28.651778 -16.468421 25.172189 1.738572 1.580597 43.193633 -5.150349 4.802094 -56.362049 80.891130 -55.811998 -16.060938 26.964391 -28.849321 
